<?xml version="1.0" encoding="us-ascii" standalone="no"?><svg xmlns="http://www.w3.org/2000/svg" xmlns:xlink="http://www.w3.org/1999/xlink" contentStyleType="text/css" height="218px" preserveAspectRatio="none" style="width:382px;height:218px;background:#1B1B1B;" version="1.1" viewBox="0 0 382 218" width="382px" zoomAndPan="magnify"><defs/><g><rect fill="#1B1B1B" height="218" style="stroke:none;stroke-width:1.0;" width="382" x="0" y="0"/><!--class Subject--><g id="elem_Subject"><rect codeLine="1" fill="#313139" height="64.2969" id="Subject" rx="2.5" ry="2.5" style="stroke:#E7E7E7;stroke-width:0.5;" width="130" x="108" y="7"/><ellipse cx="143.25" cy="23" fill="#352866" rx="11" ry="11" style="stroke:#E7E7E7;stroke-width:1.0;"/><path d="M144.2031,19.7813 L145.9219,19.7813 C146.3125,19.7813 146.5,19.75 146.625,19.6719 C146.8906,19.5156 147.0313,19.2344 147.0313,18.9375 C147.0313,18.6719 146.9219,18.4063 146.6875,18.2344 C146.5156,18.125 146.375,18.0938 145.9219,18.0938 L140.7813,18.0938 C140.3438,18.0938 140.2188,18.1094 140.0625,18.2031 C139.8125,18.3594 139.6563,18.6563 139.6563,18.9375 C139.6563,19.2188 139.7969,19.4688 140.0156,19.6406 C140.1719,19.75 140.3594,19.7813 140.7813,19.7813 L142.5,19.7813 L142.5,26.2969 L140.7813,26.2969 C140.3438,26.2969 140.2188,26.3125 140.0625,26.4219 C139.8125,26.5781 139.6563,26.8594 139.6563,27.1563 C139.6563,27.4063 139.7969,27.6719 140.0156,27.8281 C140.1719,27.9531 140.375,28 140.7813,28 L145.9219,28 C146.6719,28 147.0313,27.7188 147.0313,27.1563 C147.0313,26.875 146.9219,26.625 146.6875,26.4531 C146.5156,26.3281 146.375,26.2969 145.9219,26.2969 L144.2031,26.2969 L144.2031,19.7813 Z " fill="#FFFFFF"/><text fill="#FFFFFF" font-family="sans-serif" font-size="14" font-style="italic" lengthAdjust="spacing" textLength="53" x="161.75" y="27.8467">Subject</text><line style="stroke:#E7E7E7;stroke-width:0.5;" x1="109" x2="237" y1="39" y2="39"/><line style="stroke:#E7E7E7;stroke-width:0.5;" x1="109" x2="237" y1="47" y2="47"/><ellipse cx="119" cy="60.6484" fill="#84BE84" rx="3" ry="3" style="stroke:#038048;stroke-width:1.0;"/><text fill="#FFFFFF" font-family="sans-serif" font-size="14" lengthAdjust="spacing" textLength="104" x="128" y="63.9951">request(): void</text></g><!--class RealSubject--><g id="elem_RealSubject"><rect codeLine="5" fill="#313139" height="64.2969" id="RealSubject" rx="2.5" ry="2.5" style="stroke:#E7E7E7;stroke-width:0.5;" width="130" x="7" y="139.5"/><ellipse cx="27.4" cy="155.5" fill="#2E5233" rx="11" ry="11" style="stroke:#E7E7E7;stroke-width:1.0;"/><path d="M29.7438,151.1719 C28.8063,150.7344 28.2125,150.5938 27.3375,150.5938 C24.7125,150.5938 22.7125,152.6719 22.7125,155.3906 L22.7125,156.5156 C22.7125,159.0938 24.8219,160.9844 27.7125,160.9844 C28.9313,160.9844 30.0875,160.6875 30.8375,160.1406 C31.4156,159.7344 31.7438,159.2813 31.7438,158.8906 C31.7438,158.4375 31.3531,158.0469 30.8844,158.0469 C30.6656,158.0469 30.4625,158.125 30.275,158.3125 C29.8219,158.7969 29.8219,158.7969 29.6344,158.8906 C29.2125,159.1563 28.525,159.2813 27.7594,159.2813 C25.7125,159.2813 24.4156,158.1875 24.4156,156.4844 L24.4156,155.3906 C24.4156,153.6094 25.6656,152.2969 27.4,152.2969 C27.9781,152.2969 28.5875,152.4531 29.0563,152.7031 C29.5406,152.9844 29.7125,153.2031 29.8063,153.6094 C29.8688,154.0156 29.9,154.1406 30.0406,154.2656 C30.1813,154.4063 30.4156,154.5156 30.6344,154.5156 C30.9,154.5156 31.1656,154.375 31.3375,154.1563 C31.4469,154 31.4781,153.8125 31.4781,153.3906 L31.4781,151.9688 C31.4781,151.5313 31.4625,151.4063 31.3688,151.25 C31.2125,150.9844 30.9313,150.8438 30.6344,150.8438 C30.3375,150.8438 30.1344,150.9375 29.9156,151.25 L29.7438,151.1719 Z " fill="#FFFFFF"/><text fill="#FFFFFF" font-family="sans-serif" font-size="14" lengthAdjust="spacing" textLength="86" x="42.6" y="160.3467">RealSubject</text><line style="stroke:#E7E7E7;stroke-width:0.5;" x1="8" x2="136" y1="171.5" y2="171.5"/><line style="stroke:#E7E7E7;stroke-width:0.5;" x1="8" x2="136" y1="179.5" y2="179.5"/><ellipse cx="18" cy="193.1484" fill="#84BE84" rx="3" ry="3" style="stroke:#038048;stroke-width:1.0;"/><text fill="#FFFFFF" font-family="sans-serif" font-size="14" lengthAdjust="spacing" textLength="104" x="27" y="196.4951">request(): void</text></g><!--class Proxy--><g id="elem_Proxy"><rect codeLine="9" fill="#313139" height="80.5938" id="Proxy" rx="2.5" ry="2.5" style="stroke:#E7E7E7;stroke-width:0.5;" width="203" x="172.5" y="131"/><ellipse cx="249.75" cy="147" fill="#2E5233" rx="11" ry="11" style="stroke:#E7E7E7;stroke-width:1.0;"/><path d="M252.0938,142.6719 C251.1563,142.2344 250.5625,142.0938 249.6875,142.0938 C247.0625,142.0938 245.0625,144.1719 245.0625,146.8906 L245.0625,148.0156 C245.0625,150.5938 247.1719,152.4844 250.0625,152.4844 C251.2813,152.4844 252.4375,152.1875 253.1875,151.6406 C253.7656,151.2344 254.0938,150.7813 254.0938,150.3906 C254.0938,149.9375 253.7031,149.5469 253.2344,149.5469 C253.0156,149.5469 252.8125,149.625 252.625,149.8125 C252.1719,150.2969 252.1719,150.2969 251.9844,150.3906 C251.5625,150.6563 250.875,150.7813 250.1094,150.7813 C248.0625,150.7813 246.7656,149.6875 246.7656,147.9844 L246.7656,146.8906 C246.7656,145.1094 248.0156,143.7969 249.75,143.7969 C250.3281,143.7969 250.9375,143.9531 251.4063,144.2031 C251.8906,144.4844 252.0625,144.7031 252.1563,145.1094 C252.2188,145.5156 252.25,145.6406 252.3906,145.7656 C252.5313,145.9063 252.7656,146.0156 252.9844,146.0156 C253.25,146.0156 253.5156,145.875 253.6875,145.6563 C253.7969,145.5 253.8281,145.3125 253.8281,144.8906 L253.8281,143.4688 C253.8281,143.0313 253.8125,142.9063 253.7188,142.75 C253.5625,142.4844 253.2813,142.3438 252.9844,142.3438 C252.6875,142.3438 252.4844,142.4375 252.2656,142.75 L252.0938,142.6719 Z " fill="#FFFFFF"/><text fill="#FFFFFF" font-family="sans-serif" font-size="14" lengthAdjust="spacing" textLength="40" x="270.25" y="151.8467">Proxy</text><line style="stroke:#E7E7E7;stroke-width:0.5;" x1="173.5" x2="374.5" y1="163" y2="163"/><rect fill="none" height="6" style="stroke:#C82930;stroke-width:1.0;" width="6" x="180.5" y="173.6484"/><text fill="#FFFFFF" font-family="sans-serif" font-size="14" lengthAdjust="spacing" textLength="177" x="192.5" y="179.9951">realSubject: RealSubject</text><line style="stroke:#E7E7E7;stroke-width:0.5;" x1="173.5" x2="374.5" y1="187.2969" y2="187.2969"/><ellipse cx="183.5" cy="200.9453" fill="#84BE84" rx="3" ry="3" style="stroke:#038048;stroke-width:1.0;"/><text fill="#FFFFFF" font-family="sans-serif" font-size="14" lengthAdjust="spacing" textLength="104" x="192.5" y="204.292">request(): void</text></g><!--reverse link Subject to RealSubject--><g id="link_Subject_RealSubject"><path codeLine="14" d="M136.47,87.2 C122.996,104.609 108.082,123.8795 95.9946,139.4971 " fill="none" id="Subject-backto-RealSubject" style="stroke:#E7E7E7;stroke-width:1.0;stroke-dasharray:7.0,7.0;"/><polygon fill="none" points="131.031,82.79,148.808,71.258,142.103,91.359,131.031,82.79" style="stroke:#E7E7E7;stroke-width:1.0;"/></g><!--reverse link Subject to Proxy--><g id="link_Subject_Proxy"><path codeLine="15" d="M209.533,87.203 C220.54,101.426 232.509,116.8898 243.111,130.5894 " fill="none" id="Subject-backto-Proxy" style="stroke:#E7E7E7;stroke-width:1.0;stroke-dasharray:7.0,7.0;"/><polygon fill="none" points="203.897,91.359,197.192,71.258,214.969,82.79,203.897,91.359" style="stroke:#E7E7E7;stroke-width:1.0;"/></g><!--SRC=[oymhIIrAIqnELGWkJSfAJIvHgEPIKD0kIYqiJIqkqT2qKYZBpqpXgkNYIiv9B2vM24fDp25EPK1HVaKbM8rk4KAJ5R89EFJ3pBUfqTD3KOuY0JOV0000]--></g></svg>